<svg xmlns="http://www.w3.org/2000/svg" xmlns:xlink="http://www.w3.org/1999/xlink" width="500" zoomAndPan="magnify" viewBox="0 0 375 374.999991" height="500" preserveAspectRatio="xMidYMid meet" version="1.0"><defs><clipPath id="1e0eec3eec"><path d="M 1.925781 1.925781 L 373.175781 1.925781 L 373.175781 373.175781 L 1.925781 373.175781 Z M 1.925781 1.925781 " clip-rule="nonzero"/></clipPath><clipPath id="37a707b690"><path d="M 27.3125 27.3125 L 347.5625 27.3125 L 347.5625 347.5625 L 27.3125 347.5625 Z M 27.3125 27.3125 " clip-rule="nonzero"/></clipPath><clipPath id="cebd918da0"><path d="M 54.277344 54.277344 L 320.527344 54.277344 L 320.527344 320.527344 L 54.277344 320.527344 Z M 54.277344 54.277344 " clip-rule="nonzero"/></clipPath></defs><g clip-path="url(#1e0eec3eec)"><path fill="#ec6433" d="M 373.175781 187.554688 C 373.175781 290.066406 290.066406 373.175781 187.550781 373.175781 C 85.035156 373.175781 1.925781 290.066406 1.925781 187.554688 C 1.925781 85.035156 85.035156 1.925781 187.550781 1.925781 C 290.070312 1.925781 373.175781 85.035156 373.175781 187.554688 Z M 373.175781 187.554688 " fill-opacity="1" fill-rule="nonzero"/></g><g clip-path="url(#37a707b690)"><path fill="#483c42" d="M 347.5625 187.441406 C 347.5625 275.871094 275.871094 347.5625 187.4375 347.5625 C 99.003906 347.5625 27.3125 275.871094 27.3125 187.441406 C 27.3125 99.003906 99.003906 27.3125 187.4375 27.3125 C 275.875 27.3125 347.5625 99.003906 347.5625 187.441406 Z M 347.5625 187.441406 " fill-opacity="1" fill-rule="nonzero"/></g><g clip-path="url(#cebd918da0)"><path fill="#ffd700" d="M 187.402344 54.277344 C 113.882812 54.277344 54.277344 113.882812 54.277344 187.402344 C 54.277344 260.921875 113.882812 320.527344 187.402344 320.527344 C 260.921875 320.527344 320.527344 260.921875 320.527344 187.402344 C 320.527344 113.882812 260.921875 54.277344 187.402344 54.277344 Z M 188.179688 218.839844 C 200.703125 218.839844 209.113281 212.949219 211.441406 203.332031 L 236.859375 203.332031 C 235.0625 220.949219 222.335938 236.667969 198.496094 240.375 L 198.496094 265.058594 L 176.308594 265.058594 L 176.308594 240.230469 C 151.304688 235.738281 134.539062 215.867188 134.539062 187.257812 C 134.539062 149.671875 160.464844 138.15625 176.308594 134.761719 L 176.308594 109.746094 L 198.496094 109.746094 L 198.496094 134.5625 C 212.320312 137.179688 233.398438 145.601562 236.859375 172.316406 L 211.441406 172.316406 C 208.734375 162.40625 199.761719 156.050781 188.265625 156.050781 C 173.5 156.050781 162.007812 167.632812 162.007812 187.257812 C 162.019531 207.160156 173.511719 218.839844 188.179688 218.839844 Z M 188.179688 218.839844 " fill-opacity="1" fill-rule="nonzero"/></g></svg>