<?xml version="1.0" encoding="UTF-8"?>
<svg version="1.1" viewBox="0 0 720 720" xmlns="http://www.w3.org/2000/svg">
 <path d="m94.632 36.003 205.54 157.53 41.846-148.91 59.077 151.37 163.69-141.53-88.615 183.37 140.31-4.9228-91.077 114.45 121.85 78.764-145.23 2.4614 128 153.84-183.38-84.918-19.692 164.91-89.846-132.91-125.54 171.07 12.308-214.14-171.08 34.459 107.08-140.3-87.384-142.76 121.85 23.383-99.692-225.22z" fill="#f00"/>
 <path d="m160.2 118.8 154.32 118.28 31.419-111.81 44.357 113.66 122.9-106.26-66.535 137.68 105.35-3.6962-68.383 85.936 91.486 59.139-109.04 1.8481 96.106 115.5-137.69-63.759-14.786 123.82-67.459-99.796-94.258 128.44 9.241-160.78-128.45 25.873 80.396-105.34-65.611-107.19 91.486 17.557-74.852-169.1z" fill="#ff8000"/>
 <path d="m226.24 204.21 99.102 75.954 20.177-71.8 28.484 72.987 78.926-68.24-42.727 88.415 67.651-2.3736-43.914 55.185 58.749 37.977-70.024 1.1868 61.716 74.174-88.421-40.944-9.4948 79.514-43.32-64.086-60.53 82.481 5.9343-103.25-82.486 16.615 51.628-67.646-42.133-68.833 58.749 11.274-48.068-108.59z" fill="#ff0"/>
 <path transform="translate(435.35 54.097)" d="m-57.961 305.26a30.912 30.912 0 1 1 -61.825 0 30.912 30.912 0 1 1 61.825 0z"/>
</svg>
